<?xml version="1.0" encoding="UTF-8"?>
<!DOCTYPE svg PUBLIC "-//W3C//DTD SVG 1.1//EN" "http://www.w3.org/Graphics/SVG/1.1/DTD/svg11.dtd">
<!-- Creator: CorelDRAW 2020 (64-Bit) -->
<svg xmlns="http://www.w3.org/2000/svg" xml:space="preserve" width="210mm" height="210mm" version="1.1" style="shape-rendering:geometricPrecision; text-rendering:geometricPrecision; image-rendering:optimizeQuality; fill-rule:evenodd; clip-rule:evenodd"
viewBox="0 0 21000 21000"
 xmlns:xlink="http://www.w3.org/1999/xlink"
 xmlns:xodm="http://www.corel.com/coreldraw/odm/2003">
 <defs>
  <style type="text/css">
   <![CDATA[
    .str0 {stroke:black;stroke-width:17.64;stroke-miterlimit:22.9256}
    .fil0 {fill:none}
    .fil2 {fill:#FEFEFE}
    .fil1 {fill:#0E9CD8}
   ]]>
  </style>
 </defs>
 <g id="Capa_x0020_1">
  <metadata id="CorelCorpID_0Corel-Layer"/>
  <rect class="fil0" x="-7.13" y="7.13" width="21000" height="21000"/>
  <g id="_2645574089120">
   <path class="fil0 str0" d="M6963.78 21340.84l95.26 -95.63c-6.3,6.31 -126.9,63.76 -95.26,95.63z"/>
   <g>
    <g>
     <path class="fil1" d="M10783.32 3423.8c-336.48,236.37 -448.45,575.66 -403.26,986.97 49.11,-10.42 -1488.69,500.34 -948.52,2226.58 324.49,905.95 1028.04,1507.9 2057.89,1507.9 -901.05,671.23 -2841.22,-549.99 -2812.7,-808.08l95.35 541.49c-314.61,-288.49 -858.89,-1109.71 -871.38,-1674.55 -157.38,149.26 -256.66,403.09 -334.5,695.55 -163.34,-996 123.33,-1512.36 308.27,-1848.77 -126.41,-23.48 -247.78,115.87 -469.64,283.25 108.58,-524.54 266.7,-661.47 728.45,-986.44l-857.51 149.09c348.65,-500.24 879.97,-742.96 1642.08,-638.9 -152.21,-225.78 -465.62,-290.38 -809.2,-324.82 569.65,-249.83 1161.6,-238.5 1778.96,-51.01 -91.33,-104.51 -258.59,-219.39 -477.13,-268.24 416.19,-70.48 888.53,-38.22 1368.33,2.63l4.51 207.35z"/>
     <path class="fil1" d="M10633.4 4071.38c102.83,-124.56 502.89,-246.51 734.18,-149.12 193.26,81.37 272.19,212.15 429.52,324.7 -524.9,-216.85 -953.41,-77.06 -1132.64,188.15 299.92,-64.12 539.74,-76.37 799.88,94.09 -284.56,-0.74 -455.92,49.9 -605.3,160.46 241.99,-39.34 455.11,-42.26 736.86,-2.08 45.45,6.48 56.69,102.99 103.76,131.69 226.53,138.09 396.87,-71 442.49,-80.97 199.15,-43.56 379.3,338.81 545.44,468 83.08,64.6 504.05,120.26 592.65,75.22 216.43,-109.98 7.1,-365.46 5.91,-623.94 -95.91,71.47 -132.59,164.36 -148.98,291.49 -70.12,-77.25 -96.62,-202.23 -103.12,-327.21 -66.96,50.62 -118.59,127.75 -140.49,242.24 -394.01,-175.43 -632.56,-447.23 -780.89,-941.45 129.5,0 267.21,-92.24 423.16,-131.59 137.58,-34.73 292.04,-17.08 429.98,-18.36 24.21,-0.22 73.29,251.56 594.56,98.09 141.08,-41.53 360.14,-208.35 517.96,-139.35 95.46,41.75 116.51,133.56 171.96,160.32l-8.6 -348.86c-18.04,-200.49 -98.57,-215.91 -284.66,-268.22 -273.17,-76.8 -560.51,-52.65 -851.7,-69.05 -139.14,-60.91 -350.88,-299.27 -694.83,-437.38 -162.76,-65.36 -450.02,42.14 -597.65,-76.77 -634.33,-510.93 -1459.7,-812.07 -1724.31,-639.32 336.72,85.98 569.84,227.76 699.82,425.07 -148.39,-8.18 -304.88,-113.64 -440.5,-90.5 -471.81,80.52 -848.57,-106.58 -1135.4,-213.37 23.21,163.68 449.37,356.86 1267.71,464.88 -1153,210.13 -1660.15,-22.63 -1977.36,-385.65 194.91,933.58 1081.34,721.48 1579.72,743.91 405.8,18.26 784.37,-136.71 1039.77,448.51 -331.25,66.61 -443.91,305.32 -488.9,626.37z"/>
    </g>
    <path class="fil2" d="M12121.94 3179.25l489.32 180.66c-5.06,-1.87 -9.66,-3.77 -13.56,-5.84 -185.09,-97.74 -314.45,-222.97 -475.76,-174.82zm0 0l489.32 180.66c24.39,9 59.4,17.13 78.46,37.8 10.44,11.31 4.42,33.27 7.08,48.92 7.3,43.02 -207.56,9.48 -248.63,13.83 -43.86,4.66 -73.36,-92.13 -75.53,-98.63 -27.01,-71.38 -170.02,-144 -250.7,-182.58z"/>
   </g>
   <g>
    <g>
     <path class="fil1" d="M10943.17 17759.13c300.69,-280.49 364.84,-631.97 263.39,-1033.13 -47.19,17.09 1405.54,-700.72 632.63,-2336.04 -446.24,-852.59 -1226.04,-1351.85 -2246.06,-1209.92 799.95,-789 2889.9,153.19 2897.23,412.75l-169.07 -523.19c351.37,242.38 1003.63,980.76 1093.84,1538.49 135.31,-169.53 198.66,-434.62 235.46,-735.01 299.04,963.99 86.27,1514.93 -50.55,1873.61 128.44,5.84 229.45,-148.91 426.12,-345.26 -35.25,534.49 -173,691.9 -585.55,1077.41l828.77 -265.84c-276.38,543.51 -769.18,857.14 -1538.36,859.1 181.87,202.65 501.2,223.44 846.24,210.2 -529.78,325.95 -1117.65,396.31 -1754.95,295.69 104.86,90.92 286.36,181.66 509.54,199.92 -402.5,127.17 -874.78,160.31 -1355.64,185.97l-33.04 -204.75z"/>
     <path class="fil1" d="M11002.42 17097.07c-84.68,137.54 -464.12,313.46 -706.62,248.87 -202.63,-53.96 -298.83,-172.61 -470.18,-262.41 549.78,142.45 954.93,-55.06 1095.9,-342.44 -288.21,104.84 -524.05,150.03 -805.21,17.04 281.95,-38.48 444.69,-112.25 577.42,-242.35 -234.26,72.31 -444.95,104.57 -729.55,103.61 -45.91,-0.15 -70.34,-94.2 -120.91,-116.13 -243.4,-105.56 -383.3,125.01 -427.12,141.18 -191.24,70.59 -422.37,-283.31 -604.73,-388.37 -91.19,-52.54 -515.81,-49.65 -597.36,7.16 -199.21,138.77 43.33,362.96 80.13,618.81 85.15,-84 108.68,-181.06 107.4,-309.25 80.09,66.86 123.56,186.99 147.22,309.88 59.35,-59.36 99.86,-142.87 105.76,-259.28 414.44,119.45 688.17,355.78 903.19,824.84 -128.26,17.85 -251.95,128.19 -400.98,188.66 -131.49,53.35 -286.91,57.16 -423.36,77.44 -23.95,3.55 -107.25,-239.06 -602.4,-15.22 -134.01,60.58 -327.99,255.99 -493.81,209.4 -100.31,-28.19 -133.81,-116.23 -192.42,-135.09l56.6 344.35c45.49,196.09 127.38,200.26 318.91,226.43 281.14,38.42 562.41,-25.1 853.08,-48.99 146.21,41.16 388.78,248.07 748.48,337.46 170.21,42.3 439.91,-103.75 602.52,-6.33 698.7,418.64 1557.69,603.16 1795.97,395.59 -345.36,-38.75 -595.79,-147.05 -751.72,-324.56 148.1,-12.36 317.63,70.53 448.77,28.93 456.21,-144.77 855.16,-11.38 1153.96,54.85 -45.54,-158.91 -494.25,-291.52 -1319.67,-285.73 1113.04,-367.02 1647.43,-206.37 2011.64,109.47 -321.71,-897.82 -1170.46,-565.58 -1667.17,-519.11 -404.45,37.83 -758.04,243.5 -1091.66,-300.95 318.91,-111.62 397.6,-363.58 397.92,-687.76z"/>
    </g>
    <path class="fil2" d="M9651.03 18185.82l-509.55 -111.5c5.26,1.15 10.08,2.41 14.24,3.91 196.79,71.31 342.17,177.51 495.31,107.59zm0 0l-509.55 -111.5c-25.4,-5.55 -61.19,-8.78 -82.93,-26.63 -11.89,-9.76 -8.95,-32.34 -13.74,-47.48 -13.16,-41.6 204.26,-37.99 244.34,-47.96 42.81,-10.65 85.36,81.15 88.4,87.28 36.6,66.98 188.24,119.2 273.48,146.29z"/>
   </g>
   <g>
    <g>
     <path class="fil1" d="M4498.66 7198.87c41.56,409.1 282.7,672.74 663.55,834.53 14.93,-47.93 -291.86,1543.16 1477.97,1916.49 948.89,160.16 1818.07,-159 2321.86,-1057.21 144.65,1114.23 -1869.58,2209.01 -2080.73,2057.88l518.93 181.72c-405.52,133.28 -1388.03,206.26 -1886.78,-59.16 53.19,210.28 226.01,421.04 443.01,632 -948.6,-344.77 -1258.72,-847.39 -1461.66,-1173.26 -82.32,98.77 -20.15,272.79 17.31,548.17 -404.38,-351.29 -446.46,-556.19 -504.01,-1117.88l-289.45 820.83c-265.74,-548.8 -217.53,-1130.94 246.05,-1744.73 -271.39,22.3 -481.04,264.05 -679.15,546.87 60.76,-619.05 360.22,-1129.8 825.74,-1576.53 -135.82,28.54 -317.84,118.22 -467.35,284.93 142.11,-397.47 401.32,-793.66 671.65,-1192.15l183.06 97.5z"/>
     <path class="fil1" d="M4990.13 7646.41c-58.34,-150.61 31,-559.19 229.09,-713.28 165.51,-128.75 318.18,-133.62 493.31,-215.78 -445.91,351.72 -533.6,793.85 -389.97,1079.9 90.79,-292.94 197.42,-508.1 473.36,-651.61 -139.86,247.83 -179.52,422.05 -156.16,606.43 84.07,-230.3 185.78,-417.61 358.65,-643.69 27.88,-36.48 117.55,0.94 165.61,-26.08 231.26,-130.02 132.22,-380.87 145.84,-425.54 59.43,-195.01 481.05,-165.08 675,-246.79 96.99,-40.85 351.46,-380.79 355.53,-480.1 9.94,-242.56 -315.28,-184.97 -541.3,-310.37 15.41,118.61 78.49,196.04 181.35,272.54 -101.68,23.36 -223.64,-14.67 -335.83,-70.13 11.39,83.16 53.4,165.92 142.55,241.02 -345.75,257.84 -699.5,332.94 -1203.11,220.54 63.35,-112.94 50.26,-278.18 92.22,-433.44 37.02,-136.98 127.97,-263.07 194.34,-384.01 11.65,-21.22 255.25,59.14 376.4,-470.58 32.79,-143.36 -5.55,-416.02 131.84,-519.91 83.11,-62.84 173.48,-36.29 223.94,-71.56l-308.47 -163.16c-183.69,-82.34 -236.53,-19.64 -373.19,117.07 -200.61,200.68 -320.11,463.11 -476.86,709.06 -121.19,91.55 -432.67,159.63 -721.38,392.06 -136.62,109.98 -183.39,413.1 -359.31,483.69 -755.93,303.32 -1422.34,875.87 -1401.11,1191.17 239.7,-251.62 477.4,-385.59 713.07,-402.43 -79.72,125.42 -248.25,210.32 -294.42,339.92 -160.57,450.89 -508.06,687.97 -741.5,885.9 154.1,59.82 531.06,-217.36 1025.59,-878.26 -380.76,1108.41 -831.86,1436.88 -1303.65,1535.95 909.6,286.71 1158.24,-590.18 1421.6,-1013.88 214.44,-345 264.47,-750.99 899.83,-687.46 -103.95,321.49 49.13,536.52 307.14,732.81z"/>
    </g>
    <path class="fil2" d="M4940.2 5911.73l396.94 -338.4c-4.1,3.49 -8.02,6.57 -11.73,8.97 -175.8,113.62 -348.29,165.18 -385.21,329.43zm0 0l396.94 -338.4c19.78,-16.87 43.99,-43.43 71.35,-49.95 14.97,-3.56 31.17,12.42 46.13,17.76 41.09,14.68 -93.27,185.67 -109.56,223.62 -17.4,40.53 -116.25,18.91 -122.98,17.62 -75.46,-11.35 -208.76,77.85 -281.88,129.35z"/>
   </g>
   <g>
    <g>
     <path class="fil1" d="M17079.84 14072.08c-97.54,-399.47 -372.71,-627.36 -772.22,-735.12 -8.18,49.53 76.41,-1568.66 -1727.98,-1694.52 -961.91,-27.87 -1778.81,408.02 -2154.01,1367.09 -296.82,-1083.66 1547.31,-2445.57 1777.28,-2324.99l-539.02 -108.48c383.28,-187.88 1346.36,-395.57 1876.93,-201.42 -81.67,-200.94 -281.88,-385.87 -525.88,-564.91 987.06,210.75 1363.49,665.83 1609.4,960.62 67.92,-109.16 -17.63,-272.96 -92.69,-540.54 448.94,292.21 518.85,489.35 653.26,1037.75l173.56 -852.88c338.84,506.93 371.32,1090.16 -3.25,1761.99 265.72,-59.49 440.06,-327.83 597.3,-635.25 25.13,621.52 -201.08,1168.66 -600.6,1675.28 130.6,-46.98 298.52,-160.89 423.63,-346.62 -85.99,413.27 -288.11,841.4 -500.96,1273.34l-194.75 -71.34z"/>
     <path class="fil1" d="M16531.39 13696.53c78.54,141.14 46.36,558.14 -128.6,738.05 -146.19,150.33 -296.73,176.19 -458.87,281.71 393.18,-409.82 419.11,-859.81 237.42,-1123.34 -49.55,302.66 -125.51,530.46 -379.03,710.63 104.36,-264.74 119.63,-442.77 71.09,-622.17 -51.53,239.69 -126.45,439.23 -266.52,686.98 -22.59,39.97 -116.56,15.27 -160.43,48.65 -211.14,160.65 -78.47,395.46 -85.81,441.58 -31.99,201.33 -453.71,229.79 -634.55,337.45 -90.43,53.83 -295.63,425.59 -285.97,524.52 23.58,241.62 337.76,139.76 578.91,232.82 -31.61,-115.36 -104.76,-183.36 -217.18,-244.95 97.48,-37.15 223.53,-16.3 342.28,23.18 -22.74,-80.8 -75.76,-156.98 -174.4,-219.08 306.92,-303.03 646.95,-426.16 1161.24,-384.24 -47.18,120.6 -11.45,282.45 -31.61,442.02 -17.79,140.78 -90.5,278.19 -139.57,407.12 -8.61,22.63 -260.96,-23.4 -307.95,517.96 -12.72,146.52 62.83,411.29 -58.93,533.13 -73.66,73.69 -166.83,59.84 -211.95,101.74l328.02 119.08c193.28,56.25 236.98,-13.14 353.49,-167.38 171.04,-226.41 253.24,-502.8 374.59,-768 107.42,-107.39 406.55,-217.74 660.47,-487.74 120.16,-127.76 124.71,-434.43 289.23,-528.6 706.91,-404.6 1288.06,-1063.52 1223.58,-1372.88 -202.74,282.25 -419.71,447.69 -650.81,496.86 61.68,-135.22 216.9,-242.53 244.77,-377.26 96.9,-468.71 408.4,-751.42 612.34,-979.63 -160.88,-38.02 -496.04,288.47 -894.77,1011.21 224.37,-1150.3 625.9,-1537.8 1079.53,-1700.95 -940.43,-158.62 -1065.85,744.17 -1268.31,1200.13 -164.85,371.25 -158.44,780.26 -796.5,804.9 58.66,-332.75 -122.6,-524.63 -405.2,-683.5z"/>
    </g>
    <path class="fil2" d="M16819.91 15407.79l-346.52 389.87c3.58,-4.03 7.03,-7.61 10.38,-10.5 158.46,-136.76 322.2,-211.6 336.14,-379.37zm0 0l-346.52 389.87c-17.27,19.44 -37.59,49.08 -63.79,59.3 -14.33,5.6 -32.59,-8 -48.13,-11.23 -42.73,-8.87 66.78,-196.74 77.69,-236.58 11.65,-42.54 112.53,-34.75 119.37,-34.4 76.32,0.84 196.05,-105.88 261.38,-166.96z"/>
   </g>
   <g>
    <g>
     <path class="fil1" d="M16974.18 7034.07c-371.96,-175.33 -722.18,-104.65 -1057.18,138.25 33.37,37.5 -1171.72,-1045.75 -2404.15,278.19 -626.49,730.44 -801.19,1639.73 -291.34,2534.52 -1029.29,-450.57 -928.75,-2740.88 -690.39,-2843.88l-423.27 350.92c94.9,-416.17 538.97,-1295.63 1023.54,-1586.12 -207.6,-62.85 -477.29,-23.44 -769.92,53.71 784.51,-635.01 1375.07,-641.57 1758.91,-647.43 -42.18,-121.46 -223.33,-157.92 -478.6,-267.81 509.5,-165.35 706.75,-95.75 1217.7,144.55l-554.06 -671.24c607.24,55.28 1081.17,396.74 1368.06,1110.43 120.82,-244.03 21.78,-548.32 -118.4,-863.89 499.09,371.26 782.3,891.19 925.04,1520.4 45.58,-131.09 62.59,-333.29 -3.16,-547.35 267.29,326.71 473.1,753.08 675.15,1190.18l-177.93 106.57z"/>
     <path class="fil1" d="M16337.3 7224.41c159.13,27.68 463.15,314.9 493.03,564.07 24.98,208.19 -49.56,341.52 -69.47,533.94 -71.44,-563.42 -405.04,-866.52 -724.2,-890.95 204.19,228.84 333.56,431.14 314.24,741.56 -140.23,-247.61 -269.06,-371.42 -439.08,-446.48 153.97,190.78 262.02,374.51 366.6,639.2 16.88,42.69 -61.42,100.23 -63.05,155.34 -7.83,265.19 258.17,309.67 289.42,344.37 136.44,151.47 -106.6,497.29 -136.59,705.61 -15,104.16 145.05,497.47 228.04,552.16 202.71,133.59 321.06,-174.76 545.04,-303.76 -109.57,-47.95 -208.44,-33.83 -327.02,14.86 32.41,-99.16 127.88,-184.06 233.25,-251.58 -77.14,-33.12 -169.7,-39.8 -280.02,-2.14 -42.64,-429.19 75.41,-771.01 431.38,-1144.56 64.11,112.51 212.43,186.49 323.83,302.51 98.28,102.35 159.42,245.29 228.82,364.51 12.18,20.92 -182.28,188.21 209.13,565.14 105.92,102.02 359.31,209.76 377.49,381.04 10.99,103.61 -58.36,167.35 -54.15,228.78l298.85 -180.18c165.26,-114.93 138.78,-192.54 92.11,-380.12 -68.51,-275.36 -231.75,-513.06 -361.66,-774.18 -15.95,-151.05 86.32,-453.03 36.03,-820.25 -23.79,-173.77 -259.4,-370.13 -229.17,-557.27 129.88,-804.09 -17.09,-1670.3 -298.18,-1814.68 91.99,335.12 84.22,607.86 -22.86,818.48 -66.37,-132.98 -52.21,-321.16 -139.45,-427.54 -303.54,-370.06 -327.5,-790.04 -376.72,-1092.12 -130.73,101.2 -87.59,567.1 223.69,1331.59 -753.38,-897.75 -802.23,-1453.62 -643.85,-1908.95 -714.66,631.54 -91.53,1296.71 135.72,1740.83 185.03,361.63 507.1,613.82 125.06,1125.46 -221.86,-254.84 -485.04,-234.54 -786.26,-114.69z"/>
    </g>
    <path class="fil2" d="M17849.37 8076.06l85.28 514.59c-0.89,-5.32 -1.51,-10.26 -1.65,-14.67 -6.7,-209.21 38.06,-383.6 -83.63,-499.92zm0 0l85.28 514.59c4.25,25.65 14.52,60.09 6,86.89 -4.66,14.66 -26.72,20.3 -39,30.36 -33.76,27.64 -110.99,-175.64 -135.11,-209.17 -25.76,-35.81 43.73,-109.35 48.31,-114.45 48.64,-58.81 40.94,-219.01 34.52,-308.22z"/>
   </g>
   <g>
    <g>
     <path class="fil1" d="M4598.03 14269.96c392.57,122.4 729.71,4.13 1028.03,-282.62 -38.22,-32.55 1304.66,874.3 2342.88,-606.85 519.85,-809.81 567.57,-1734.5 -60.72,-2550.49 1081.55,304.43 1297.6,2586.74 1075.71,2721.61l370.87 -405.91c-36.64,425.28 -355.27,1357.54 -795.19,1712.05 214.28,33.63 475.97,-42.56 755.18,-159.31 -689.51,737.06 -1273.53,824.95 -1652.91,883.65 58.51,114.49 242.97,125.64 510.94,199.3 -481.85,233.99 -686.81,192.24 -1226,24.64l641.28 588.48c-609.06,28.93 -1125.53,-243.96 -1508.03,-911.3 -86.04,258.35 53.99,546.09 236.32,839.33 -545.49,-298.94 -897.65,-774.88 -1125.74,-1378.41 -27.09,136.12 -16.07,338.73 78.56,541.69 -309.76,-286.76 -572.37,-680.69 -832.73,-1085.78l161.55 -130.08z"/>
     <path class="fil1" d="M5202.59 13993.67c-161.42,-5.48 -502.12,-248.06 -566.06,-490.74 -53.43,-202.77 2.03,-345.09 -4.77,-538.42 148.41,548.2 520.6,802.43 840.08,782.64 -233.78,-198.51 -389.8,-381.05 -413.45,-691.17 173.02,225.92 317.69,330.8 496.43,381.71 -178.8,-167.74 -311.14,-334.82 -451.2,-582.58 -22.59,-39.96 47.02,-107.74 41.05,-162.54 -28.79,-263.75 -298.38,-271.14 -334.12,-301.21 -156.01,-131.22 37.05,-507.24 38.05,-717.7 0.5,-105.23 -212.23,-472.74 -301.97,-515.47 -219.18,-104.38 -293.9,217.34 -497.98,375.98 115.15,32.4 211.12,4.78 321.86,-59.79 -18.43,102.69 -101.29,199.93 -196.35,281.33 80.96,22.18 173.57,16.03 277.64,-36.47 101.39,419.22 31.57,774.05 -269.53,1193.09 -79,-102.61 -236.11,-155.44 -362.43,-255 -111.45,-87.82 -191.7,-220.98 -276.87,-329.5 -14.94,-19.04 154.6,-211.53 -285.01,-530.93 -118.98,-86.44 -384.8,-158.23 -426.41,-325.38 -25.16,-101.1 34.74,-173.8 22.11,-234.06l-271.17 219.65c-147.84,136.61 -110.93,209.83 -38.85,389.19 105.81,263.29 300.24,476.23 464.9,716.95 36.62,147.41 -23.06,460.6 77.35,817.39 47.52,168.83 307.94,330.85 303.79,520.36 -17.83,814.32 247.11,1652.01 545.42,1756.28 -137.3,-319.25 -167.19,-590.45 -90.15,-813.82 84.05,122.57 95.96,310.9 197.04,404.24 351.63,324.7 433.25,737.37 523.63,1029.78 115.53,-118.24 8.6,-573.75 -405.07,-1288.06 869.92,785.37 994.9,1329.21 900.78,1802.01 620.81,-723.99 -88.05,-1296.95 -374.33,-1705.51 -233.1,-332.68 -586.85,-538.08 -278.97,-1097.48 254.86,221.82 512.73,165.45 794.56,5.23z"/>
    </g>
    <path class="fil2" d="M3587.59 13358.53l-155.38 -497.93c1.6,5.15 2.9,9.95 3.65,14.31 35.47,206.29 15.17,385.17 151.73,483.62zm0 0l-155.38 -497.93c-7.75,-24.82 -22.67,-57.51 -17.92,-85.23 2.59,-15.17 23.66,-23.8 34.44,-35.45 29.63,-32.03 134.14,158.67 162.65,188.55 30.44,31.92 -28.25,114.34 -32.07,120.02 -40.08,64.95 -10.37,222.57 8.28,310.04z"/>
   </g>
  </g>
 </g>
</svg>
